<svg width="48" height="48" viewBox="0 0 48 48" fill="none" xmlns="http://www.w3.org/2000/svg" xmlns:xlink="http://www.w3.org/1999/xlink">
<path d="M2,24L1.106,23.553C0.965,23.834 0.965,24.166 1.106,24.447L2,24ZM46,24L46.894,24.447C47.035,24.166 47.035,23.834 46.894,23.553L46,24ZM2,24C2.894,24.447 2.894,24.447 2.894,24.448C2.894,24.448 2.894,24.448 2.894,24.448C2.894,24.448 2.894,24.447 2.895,24.447C2.895,24.446 2.896,24.444 2.898,24.441C2.901,24.435 2.906,24.425 2.913,24.411C2.927,24.384 2.948,24.343 2.977,24.288C3.035,24.178 3.124,24.014 3.243,23.803C3.48,23.381 3.837,22.773 4.309,22.043C5.254,20.579 6.656,18.629 8.48,16.684C12.146,12.774 17.399,9 24,9L24,7C16.601,7 10.854,11.226 7.02,15.316C5.094,17.371 3.621,19.421 2.629,20.957C2.132,21.727 1.754,22.369 1.5,22.822C1.372,23.049 1.275,23.228 1.209,23.353C1.176,23.415 1.151,23.463 1.134,23.497C1.125,23.514 1.119,23.527 1.114,23.536C1.112,23.541 1.11,23.545 1.108,23.547C1.108,23.549 1.107,23.55 1.107,23.551C1.106,23.551 1.106,23.552 1.106,23.552C1.106,23.552 1.106,23.553 2,24ZM24,9C30.6,9 35.854,12.774 39.52,16.684C41.344,18.629 42.746,20.579 43.691,22.043C44.163,22.773 44.52,23.381 44.757,23.803C44.876,24.014 44.965,24.178 45.023,24.288C45.052,24.343 45.073,24.384 45.087,24.411C45.094,24.425 45.099,24.435 45.102,24.441C45.104,24.444 45.105,24.446 45.105,24.447C45.106,24.447 45.106,24.448 45.106,24.448C45.106,24.448 45.106,24.448 45.106,24.448C45.106,24.447 45.106,24.447 46,24C46.894,23.553 46.894,23.552 46.894,23.552C46.894,23.552 46.894,23.551 46.893,23.551C46.893,23.55 46.892,23.549 46.892,23.547C46.89,23.545 46.888,23.541 46.886,23.536C46.881,23.527 46.875,23.514 46.866,23.497C46.849,23.463 46.824,23.415 46.791,23.353C46.725,23.228 46.628,23.049 46.5,22.822C46.246,22.369 45.868,21.727 45.371,20.957C44.379,19.421 42.906,17.371 40.98,15.316C37.146,11.226 31.4,7 24,7L24,9ZM46,24C45.106,23.553 45.106,23.553 45.106,23.552C45.106,23.552 45.106,23.552 45.106,23.552C45.106,23.552 45.106,23.553 45.105,23.553C45.105,23.554 45.104,23.556 45.102,23.559C45.099,23.565 45.094,23.575 45.087,23.589C45.073,23.616 45.052,23.657 45.023,23.712C44.965,23.822 44.876,23.986 44.757,24.197C44.52,24.619 44.163,25.227 43.691,25.957C42.746,27.421 41.344,29.371 39.52,31.316C35.854,35.226 30.6,39 24,39L24,41C31.4,41 37.146,36.774 40.98,32.684C42.906,30.629 44.379,28.579 45.371,27.043C45.868,26.273 46.246,25.631 46.5,25.178C46.628,24.951 46.725,24.772 46.791,24.647C46.824,24.585 46.849,24.537 46.866,24.503C46.875,24.486 46.881,24.473 46.886,24.464C46.888,24.459 46.89,24.455 46.892,24.453C46.892,24.451 46.893,24.45 46.893,24.449C46.894,24.449 46.894,24.448 46.894,24.448C46.894,24.448 46.894,24.447 46,24ZM24,39C17.399,39 12.146,35.226 8.48,31.316C6.656,29.371 5.254,27.421 4.309,25.957C3.837,25.227 3.48,24.619 3.243,24.197C3.124,23.986 3.035,23.822 2.977,23.712C2.948,23.657 2.927,23.616 2.913,23.589C2.906,23.575 2.901,23.565 2.898,23.559C2.896,23.556 2.895,23.554 2.895,23.553C2.894,23.553 2.894,23.552 2.894,23.552C2.894,23.552 2.894,23.552 2.894,23.552C2.894,23.553 2.894,23.553 2,24C1.106,24.447 1.106,24.448 1.106,24.448C1.106,24.448 1.106,24.449 1.107,24.449C1.107,24.45 1.108,24.451 1.108,24.453C1.11,24.455 1.112,24.459 1.114,24.464C1.119,24.473 1.125,24.486 1.134,24.503C1.151,24.537 1.176,24.585 1.209,24.647C1.275,24.772 1.372,24.951 1.5,25.178C1.754,25.631 2.132,26.273 2.629,27.043C3.621,28.579 5.094,30.629 7.02,32.684C10.854,36.774 16.601,41 24,41L24,39Z" fill="#949393"/>
<path d="M29,24C29,26.761 26.761,29 24,29L24,31C27.866,31 31,27.866 31,24L29,24ZM24,29C21.239,29 19,26.761 19,24L17,24C17,27.866 20.134,31 24,31L24,29ZM19,24C19,21.239 21.239,19 24,19L24,17C20.134,17 17,20.134 17,24L19,24ZM24,19C26.761,19 29,21.239 29,24L31,24C31,20.134 27.866,17 24,17L24,19Z" fill="#949393"/>
</svg>
