<svg width="48" height="48" viewBox="0 0 48 48" fill="none" xmlns="http://www.w3.org/2000/svg" xmlns:xlink="http://www.w3.org/1999/xlink">
<path d="M43.611,19.083L42,19.083L42,19L24,19L24,27L35.303,27C33.654,31.657 29.223,35 24,35C17.373,35 12,29.627 12,23C12,16.373 17.373,11 24,11C27.059,11 29.842,12.154 31.961,14.039L37.618,8.382C34.046,5.053 29.268,3 24,3C12.955,3 4,11.955 4,23C4,34.045 12.955,43 24,43C35.045,43 44,34.045 44,23C44,21.659 43.862,20.35 43.611,19.083Z" fill="#FFC107"/>
<path d="M6.306,13.691L12.877,18.51C14.655,14.108 18.961,11 24,11C27.059,11 29.842,12.154 31.961,14.039L37.618,8.382C34.046,5.053 29.268,3 24,3C16.318,3 9.656,7.337 6.306,13.691Z" fill="#FF3D00"/>
<path d="M24,43C29.166,43 33.86,41.023 37.409,37.808L31.219,32.57C29.144,34.148 26.607,35.002 24,35C18.798,35 14.381,31.683 12.717,27.054L6.195,32.079C9.505,38.556 16.227,43 24,43Z" fill="#4CAF50"/>
<path d="M43.611,19.083L42,19.083L42,19L24,19L24,27L35.303,27C34.514,29.216 33.093,31.153 31.216,32.571L31.219,32.569L37.409,37.807C36.971,38.205 44,33 44,23C44,21.659 43.862,20.35 43.611,19.083Z" fill="#1976D2"/>
</svg>
