<svg width="48" height="48" viewBox="0 0 48 48" fill="none" xmlns="http://www.w3.org/2000/svg" xmlns:xlink="http://www.w3.org/1999/xlink">
<path d="M30,24C30,27.314 27.314,30 24,30L24,34C29.523,34 34,29.523 34,24L30,24ZM24,30C20.686,30 18,27.314 18,24L14,24C14,29.523 18.477,34 24,34L24,30ZM18,24C18,20.686 20.686,18 24,18L24,14C18.477,14 14,18.477 14,24L18,24ZM24,18C27.314,18 30,20.686 30,24L34,24C34,18.477 29.523,14 24,14L24,18Z" fill="#000000"/>
<path d="M34,16C34,14.895 33.105,14 32,14C30.895,14 30,14.895 30,16L34,16ZM32,26L30,26L32,26ZM44,26L46,26L44,26ZM44,24L46,24L46,24L44,24ZM37.376,41.468C38.253,40.796 38.419,39.541 37.748,38.664C37.076,37.787 35.821,37.621 34.944,38.292L37.376,41.468ZM30,16L30,26L34,26L34,16L30,16ZM30,26C30,28.122 30.843,30.157 32.343,31.657L35.172,28.828C34.421,28.078 34,27.061 34,26L30,26ZM32.343,31.657C33.843,33.157 35.878,34 38,34L38,30C36.939,30 35.922,29.579 35.172,28.828L32.343,31.657ZM38,34C40.122,34 42.157,33.157 43.657,31.657L40.828,28.828C40.078,29.579 39.061,30 38,30L38,34ZM43.657,31.657C45.157,30.157 46,28.122 46,26L42,26C42,27.061 41.579,28.078 40.828,28.828L43.657,31.657ZM46,26L46,24L42,24L42,26L46,26ZM46,24C46,19.035 44.32,14.215 41.233,10.326L38.1,12.812C40.625,15.995 42,19.938 42,24L46,24ZM41.233,10.326C38.147,6.436 33.835,3.705 29,2.577L28.091,6.472C32.047,7.396 35.575,9.63 38.1,12.812L41.233,10.326ZM29,2.577C24.164,1.448 19.089,1.989 14.6,4.11L16.309,7.727C19.982,5.991 24.135,5.549 28.091,6.472L29,2.577ZM14.6,4.11C10.111,6.232 6.471,9.81 4.273,14.262L7.86,16.033C9.658,12.39 12.636,9.463 16.309,7.727L14.6,4.11ZM4.273,14.262C2.075,18.714 1.448,23.779 2.493,28.633L6.404,27.791C5.548,23.82 6.061,19.676 7.86,16.033L4.273,14.262ZM2.493,28.633C3.539,33.487 6.195,37.845 10.031,40.998L12.571,37.907C9.433,35.328 7.259,31.763 6.404,27.791L2.493,28.633ZM10.031,40.998C13.867,44.15 18.657,45.913 23.622,45.998L23.691,41.999C19.629,41.929 15.71,40.487 12.571,37.907L10.031,40.998ZM23.622,45.998C28.586,46.083 33.434,44.487 37.376,41.468L34.944,38.292C31.719,40.762 27.752,42.068 23.691,41.999L23.622,45.998Z" fill="#000000"/>
</svg>
