<svg width="48" height="48" viewBox="0 0 48 48" fill="none" xmlns="http://www.w3.org/2000/svg" xmlns:xlink="http://www.w3.org/1999/xlink">
<path d="M38,42C38,43.105 38.895,44 40,44C41.105,44 42,43.105 42,42L38,42ZM32,30L32,28L32,30ZM16,30L16,28L16,30ZM8,38L6,38L8,38ZM6,42C6,43.105 6.895,44 8,44C9.105,44 10,43.105 10,42L6,42ZM42,42L42,38L38,38L38,42L42,42ZM42,38C42,35.348 40.946,32.804 39.071,30.929L36.243,33.757C37.368,34.883 38,36.409 38,38L42,38ZM39.071,30.929C37.196,29.054 34.652,28 32,28L32,32C33.591,32 35.117,32.632 36.243,33.757L39.071,30.929ZM32,28L16,28L16,32L32,32L32,28ZM16,28C13.348,28 10.804,29.054 8.929,30.929L11.757,33.757C12.883,32.632 14.409,32 16,32L16,28ZM8.929,30.929C7.054,32.804 6,35.348 6,38L10,38C10,36.409 10.632,34.883 11.757,33.757L8.929,30.929ZM6,38L6,42L10,42L10,38L6,38Z" fill="#000000"/>
<path d="M30,14C30,17.314 27.314,20 24,20L24,24C29.523,24 34,19.523 34,14L30,14ZM24,20C20.686,20 18,17.314 18,14L14,14C14,19.523 18.477,24 24,24L24,20ZM18,14C18,10.686 20.686,8 24,8L24,4C18.477,4 14,8.477 14,14L18,14ZM24,8C27.314,8 30,10.686 30,14L34,14C34,8.477 29.523,4 24,4L24,8Z" fill="#000000"/>
</svg>
